<?xml version="1.0" encoding="UTF-8" standalone="no"?><svg xmlns="http://www.w3.org/2000/svg" id="aya_charset_npc1" width="256" height="256" viewBox="0 0 256 256" preserveAspectRatio="xMidYMid meet" rendering="crispEdges"><rect id="4-2" x="48" y="16" width="16" height="16" shape-rendering="crispEdges" style="fill:#232646;opacity:255;"></rect><rect id="5-2" x="64" y="16" width="16" height="16" shape-rendering="crispEdges" style="fill:#232646;opacity:255;"></rect><rect id="6-2" x="80" y="16" width="16" height="16" shape-rendering="crispEdges" style="fill:#232646;opacity:255;"></rect><rect id="7-2" x="96" y="16" width="16" height="16" shape-rendering="crispEdges" style="fill:#232646;opacity:255;"></rect><rect id="8-2" x="112" y="16" width="16" height="16" shape-rendering="crispEdges" style="fill:#232646;opacity:255;"></rect><rect id="9-2" x="128" y="16" width="16" height="16" shape-rendering="crispEdges" style="fill:#232646;opacity:255;"></rect><rect id="10-2" x="144" y="16" width="16" height="16" shape-rendering="crispEdges" style="fill:#232646;opacity:255;"></rect><rect id="11-2" x="160" y="16" width="16" height="16" shape-rendering="crispEdges" style="fill:#232646;opacity:255;"></rect><rect id="12-2" x="176" y="16" width="16" height="16" shape-rendering="crispEdges" style="fill:#232646;opacity:255;"></rect><rect id="13-2" x="192" y="16" width="16" height="16" shape-rendering="crispEdges" style="fill:#232646;opacity:255;"></rect><rect id="2-3" x="16" y="32" width="16" height="16" shape-rendering="crispEdges" style="fill:#232646;opacity:255;"></rect><rect id="3-3" x="32" y="32" width="16" height="16" shape-rendering="crispEdges" style="fill:#32355b;opacity:255;"></rect><rect id="4-3" x="48" y="32" width="16" height="16" shape-rendering="crispEdges" style="fill:#32355b;opacity:255;"></rect><rect id="5-3" x="64" y="32" width="16" height="16" shape-rendering="crispEdges" style="fill:#32355b;opacity:255;"></rect><rect id="6-3" x="80" y="32" width="16" height="16" shape-rendering="crispEdges" style="fill:#32355b;opacity:255;"></rect><rect id="7-3" x="96" y="32" width="16" height="16" shape-rendering="crispEdges" style="fill:#32355b;opacity:255;"></rect><rect id="8-3" x="112" y="32" width="16" height="16" shape-rendering="crispEdges" style="fill:#32355b;opacity:255;"></rect><rect id="9-3" x="128" y="32" width="16" height="16" shape-rendering="crispEdges" style="fill:#32355b;opacity:255;"></rect><rect id="10-3" x="144" y="32" width="16" height="16" shape-rendering="crispEdges" style="fill:#32355b;opacity:255;"></rect><rect id="11-3" x="160" y="32" width="16" height="16" shape-rendering="crispEdges" style="fill:#32355b;opacity:255;"></rect><rect id="12-3" x="176" y="32" width="16" height="16" shape-rendering="crispEdges" style="fill:#32355b;opacity:255;"></rect><rect id="13-3" x="192" y="32" width="16" height="16" shape-rendering="crispEdges" style="fill:#32355b;opacity:255;"></rect><rect id="14-3" x="208" y="32" width="16" height="16" shape-rendering="crispEdges" style="fill:#32355b;opacity:255;"></rect><rect id="15-3" x="224" y="32" width="16" height="16" shape-rendering="crispEdges" style="fill:#232646;opacity:255;"></rect><rect id="1-4" x="0" y="48" width="16" height="16" shape-rendering="crispEdges" style="fill:#232646;opacity:255;"></rect><rect id="2-4" x="16" y="48" width="16" height="16" shape-rendering="crispEdges" style="fill:#32355b;opacity:255;"></rect><rect id="3-4" x="32" y="48" width="16" height="16" shape-rendering="crispEdges" style="fill:#32355b;opacity:255;"></rect><rect id="4-4" x="48" y="48" width="16" height="16" shape-rendering="crispEdges" style="fill:#32355b;opacity:255;"></rect><rect id="5-4" x="64" y="48" width="16" height="16" shape-rendering="crispEdges" style="fill:#32355b;opacity:255;"></rect><rect id="6-4" x="80" y="48" width="16" height="16" shape-rendering="crispEdges" style="fill:#32355b;opacity:255;"></rect><rect id="7-4" x="96" y="48" width="16" height="16" shape-rendering="crispEdges" style="fill:#32355b;opacity:255;"></rect><rect id="8-4" x="112" y="48" width="16" height="16" shape-rendering="crispEdges" style="fill:#32355b;opacity:255;"></rect><rect id="9-4" x="128" y="48" width="16" height="16" shape-rendering="crispEdges" style="fill:#32355b;opacity:255;"></rect><rect id="10-4" x="144" y="48" width="16" height="16" shape-rendering="crispEdges" style="fill:#32355b;opacity:255;"></rect><rect id="11-4" x="160" y="48" width="16" height="16" shape-rendering="crispEdges" style="fill:#32355b;opacity:255;"></rect><rect id="12-4" x="176" y="48" width="16" height="16" shape-rendering="crispEdges" style="fill:#32355b;opacity:255;"></rect><rect id="13-4" x="192" y="48" width="16" height="16" shape-rendering="crispEdges" style="fill:#32355b;opacity:255;"></rect><rect id="14-4" x="208" y="48" width="16" height="16" shape-rendering="crispEdges" style="fill:#32355b;opacity:255;"></rect><rect id="15-4" x="224" y="48" width="16" height="16" shape-rendering="crispEdges" style="fill:#32355b;opacity:255;"></rect><rect id="16-4" x="240" y="48" width="16" height="16" shape-rendering="crispEdges" style="fill:#232646;opacity:255;"></rect><rect id="1-5" x="0" y="64" width="16" height="16" shape-rendering="crispEdges" style="fill:#232646;opacity:255;"></rect><rect id="2-5" x="16" y="64" width="16" height="16" shape-rendering="crispEdges" style="fill:#232646;opacity:255;"></rect><rect id="3-5" x="32" y="64" width="16" height="16" shape-rendering="crispEdges" style="fill:#32355b;opacity:255;"></rect><rect id="4-5" x="48" y="64" width="16" height="16" shape-rendering="crispEdges" style="fill:#32355b;opacity:255;"></rect><rect id="5-5" x="64" y="64" width="16" height="16" shape-rendering="crispEdges" style="fill:#32355b;opacity:255;"></rect><rect id="6-5" x="80" y="64" width="16" height="16" shape-rendering="crispEdges" style="fill:#32355b;opacity:255;"></rect><rect id="7-5" x="96" y="64" width="16" height="16" shape-rendering="crispEdges" style="fill:#32355b;opacity:255;"></rect><rect id="8-5" x="112" y="64" width="16" height="16" shape-rendering="crispEdges" style="fill:#32355b;opacity:255;"></rect><rect id="9-5" x="128" y="64" width="16" height="16" shape-rendering="crispEdges" style="fill:#32355b;opacity:255;"></rect><rect id="10-5" x="144" y="64" width="16" height="16" shape-rendering="crispEdges" style="fill:#32355b;opacity:255;"></rect><rect id="11-5" x="160" y="64" width="16" height="16" shape-rendering="crispEdges" style="fill:#32355b;opacity:255;"></rect><rect id="12-5" x="176" y="64" width="16" height="16" shape-rendering="crispEdges" style="fill:#32355b;opacity:255;"></rect><rect id="13-5" x="192" y="64" width="16" height="16" shape-rendering="crispEdges" style="fill:#32355b;opacity:255;"></rect><rect id="14-5" x="208" y="64" width="16" height="16" shape-rendering="crispEdges" style="fill:#32355b;opacity:255;"></rect><rect id="15-5" x="224" y="64" width="16" height="16" shape-rendering="crispEdges" style="fill:#232646;opacity:255;"></rect><rect id="16-5" x="240" y="64" width="16" height="16" shape-rendering="crispEdges" style="fill:#232646;opacity:255;"></rect><rect id="1-6" x="0" y="80" width="16" height="16" shape-rendering="crispEdges" style="fill:#232646;opacity:255;"></rect><rect id="2-6" x="16" y="80" width="16" height="16" shape-rendering="crispEdges" style="fill:#232646;opacity:255;"></rect><rect id="3-6" x="32" y="80" width="16" height="16" shape-rendering="crispEdges" style="fill:#232646;opacity:255;"></rect><rect id="4-6" x="48" y="80" width="16" height="16" shape-rendering="crispEdges" style="fill:#232646;opacity:255;"></rect><rect id="5-6" x="64" y="80" width="16" height="16" shape-rendering="crispEdges" style="fill:#232646;opacity:255;"></rect><rect id="6-6" x="80" y="80" width="16" height="16" shape-rendering="crispEdges" style="fill:#232646;opacity:255;"></rect><rect id="7-6" x="96" y="80" width="16" height="16" shape-rendering="crispEdges" style="fill:#232646;opacity:255;"></rect><rect id="8-6" x="112" y="80" width="16" height="16" shape-rendering="crispEdges" style="fill:#232646;opacity:255;"></rect><rect id="9-6" x="128" y="80" width="16" height="16" shape-rendering="crispEdges" style="fill:#232646;opacity:255;"></rect><rect id="10-6" x="144" y="80" width="16" height="16" shape-rendering="crispEdges" style="fill:#232646;opacity:255;"></rect><rect id="11-6" x="160" y="80" width="16" height="16" shape-rendering="crispEdges" style="fill:#232646;opacity:255;"></rect><rect id="12-6" x="176" y="80" width="16" height="16" shape-rendering="crispEdges" style="fill:#232646;opacity:255;"></rect><rect id="13-6" x="192" y="80" width="16" height="16" shape-rendering="crispEdges" style="fill:#232646;opacity:255;"></rect><rect id="14-6" x="208" y="80" width="16" height="16" shape-rendering="crispEdges" style="fill:#232646;opacity:255;"></rect><rect id="15-6" x="224" y="80" width="16" height="16" shape-rendering="crispEdges" style="fill:#232646;opacity:255;"></rect><rect id="16-6" x="240" y="80" width="16" height="16" shape-rendering="crispEdges" style="fill:#232646;opacity:255;"></rect><rect id="2-7" x="16" y="96" width="16" height="16" shape-rendering="crispEdges" style="fill:#88403b;opacity:255;"></rect><rect id="3-7" x="32" y="96" width="16" height="16" shape-rendering="crispEdges" style="fill:#232646;opacity:255;"></rect><rect id="4-7" x="48" y="96" width="16" height="16" shape-rendering="crispEdges" style="fill:#232646;opacity:255;"></rect><rect id="5-7" x="64" y="96" width="16" height="16" shape-rendering="crispEdges" style="fill:#232646;opacity:255;"></rect><rect id="6-7" x="80" y="96" width="16" height="16" shape-rendering="crispEdges" style="fill:#232646;opacity:255;"></rect><rect id="7-7" x="96" y="96" width="16" height="16" shape-rendering="crispEdges" style="fill:#232646;opacity:255;"></rect><rect id="8-7" x="112" y="96" width="16" height="16" shape-rendering="crispEdges" style="fill:#232646;opacity:255;"></rect><rect id="9-7" x="128" y="96" width="16" height="16" shape-rendering="crispEdges" style="fill:#232646;opacity:255;"></rect><rect id="10-7" x="144" y="96" width="16" height="16" shape-rendering="crispEdges" style="fill:#232646;opacity:255;"></rect><rect id="11-7" x="160" y="96" width="16" height="16" shape-rendering="crispEdges" style="fill:#232646;opacity:255;"></rect><rect id="12-7" x="176" y="96" width="16" height="16" shape-rendering="crispEdges" style="fill:#232646;opacity:255;"></rect><rect id="13-7" x="192" y="96" width="16" height="16" shape-rendering="crispEdges" style="fill:#232646;opacity:255;"></rect><rect id="14-7" x="208" y="96" width="16" height="16" shape-rendering="crispEdges" style="fill:#232646;opacity:255;"></rect><rect id="15-7" x="224" y="96" width="16" height="16" shape-rendering="crispEdges" style="fill:#88403b;opacity:255;"></rect><rect id="2-8" x="16" y="112" width="16" height="16" shape-rendering="crispEdges" style="fill:#232646;opacity:255;"></rect><rect id="3-8" x="32" y="112" width="16" height="16" shape-rendering="crispEdges" style="fill:#88403b;opacity:255;"></rect><rect id="4-8" x="48" y="112" width="16" height="16" shape-rendering="crispEdges" style="fill:#88403b;opacity:255;"></rect><rect id="5-8" x="64" y="112" width="16" height="16" shape-rendering="crispEdges" style="fill:#c1493e;opacity:255;"></rect><rect id="6-8" x="80" y="112" width="16" height="16" shape-rendering="crispEdges" style="fill:#88403b;opacity:255;"></rect><rect id="7-8" x="96" y="112" width="16" height="16" shape-rendering="crispEdges" style="fill:#c1493e;opacity:255;"></rect><rect id="8-8" x="112" y="112" width="16" height="16" shape-rendering="crispEdges" style="fill:#c1493e;opacity:255;"></rect><rect id="9-8" x="128" y="112" width="16" height="16" shape-rendering="crispEdges" style="fill:#c1493e;opacity:255;"></rect><rect id="10-8" x="144" y="112" width="16" height="16" shape-rendering="crispEdges" style="fill:#c1493e;opacity:255;"></rect><rect id="11-8" x="160" y="112" width="16" height="16" shape-rendering="crispEdges" style="fill:#88403b;opacity:255;"></rect><rect id="12-8" x="176" y="112" width="16" height="16" shape-rendering="crispEdges" style="fill:#c1493e;opacity:255;"></rect><rect id="13-8" x="192" y="112" width="16" height="16" shape-rendering="crispEdges" style="fill:#88403b;opacity:255;"></rect><rect id="14-8" x="208" y="112" width="16" height="16" shape-rendering="crispEdges" style="fill:#88403b;opacity:255;"></rect><rect id="15-8" x="224" y="112" width="16" height="16" shape-rendering="crispEdges" style="fill:#232646;opacity:255;"></rect><rect id="2-9" x="16" y="128" width="16" height="16" shape-rendering="crispEdges" style="fill:#3f6269;opacity:255;"></rect><rect id="3-9" x="32" y="128" width="16" height="16" shape-rendering="crispEdges" style="fill:#232646;opacity:255;"></rect><rect id="4-9" x="48" y="128" width="16" height="16" shape-rendering="crispEdges" style="fill:#32355b;opacity:255;"></rect><rect id="5-9" x="64" y="128" width="16" height="16" shape-rendering="crispEdges" style="fill:#32355b;opacity:255;"></rect><rect id="6-9" x="80" y="128" width="16" height="16" shape-rendering="crispEdges" style="fill:#32355b;opacity:255;"></rect><rect id="7-9" x="96" y="128" width="16" height="16" shape-rendering="crispEdges" style="fill:#32355b;opacity:255;"></rect><rect id="8-9" x="112" y="128" width="16" height="16" shape-rendering="crispEdges" style="fill:#32355b;opacity:255;"></rect><rect id="9-9" x="128" y="128" width="16" height="16" shape-rendering="crispEdges" style="fill:#32355b;opacity:255;"></rect><rect id="10-9" x="144" y="128" width="16" height="16" shape-rendering="crispEdges" style="fill:#32355b;opacity:255;"></rect><rect id="11-9" x="160" y="128" width="16" height="16" shape-rendering="crispEdges" style="fill:#32355b;opacity:255;"></rect><rect id="12-9" x="176" y="128" width="16" height="16" shape-rendering="crispEdges" style="fill:#32355b;opacity:255;"></rect><rect id="13-9" x="192" y="128" width="16" height="16" shape-rendering="crispEdges" style="fill:#32355b;opacity:255;"></rect><rect id="14-9" x="208" y="128" width="16" height="16" shape-rendering="crispEdges" style="fill:#232646;opacity:255;"></rect><rect id="15-9" x="224" y="128" width="16" height="16" shape-rendering="crispEdges" style="fill:#3f6269;opacity:255;"></rect><rect id="2-10" x="16" y="144" width="16" height="16" shape-rendering="crispEdges" style="fill:#b5d0d5;opacity:255;"></rect><rect id="3-10" x="32" y="144" width="16" height="16" shape-rendering="crispEdges" style="fill:#3f6269;opacity:255;"></rect><rect id="4-10" x="48" y="144" width="16" height="16" shape-rendering="crispEdges" style="fill:#3f6269;opacity:255;"></rect><rect id="5-10" x="64" y="144" width="16" height="16" shape-rendering="crispEdges" style="fill:#232646;opacity:255;"></rect><rect id="6-10" x="80" y="144" width="16" height="16" shape-rendering="crispEdges" style="fill:#32355b;opacity:255;"></rect><rect id="7-10" x="96" y="144" width="16" height="16" shape-rendering="crispEdges" style="fill:#32355b;opacity:255;"></rect><rect id="8-10" x="112" y="144" width="16" height="16" shape-rendering="crispEdges" style="fill:#32355b;opacity:255;"></rect><rect id="9-10" x="128" y="144" width="16" height="16" shape-rendering="crispEdges" style="fill:#32355b;opacity:255;"></rect><rect id="10-10" x="144" y="144" width="16" height="16" shape-rendering="crispEdges" style="fill:#32355b;opacity:255;"></rect><rect id="11-10" x="160" y="144" width="16" height="16" shape-rendering="crispEdges" style="fill:#32355b;opacity:255;"></rect><rect id="12-10" x="176" y="144" width="16" height="16" shape-rendering="crispEdges" style="fill:#232646;opacity:255;"></rect><rect id="13-10" x="192" y="144" width="16" height="16" shape-rendering="crispEdges" style="fill:#3f6269;opacity:255;"></rect><rect id="14-10" x="208" y="144" width="16" height="16" shape-rendering="crispEdges" style="fill:#3f6269;opacity:255;"></rect><rect id="15-10" x="224" y="144" width="16" height="16" shape-rendering="crispEdges" style="fill:#b5d0d5;opacity:255;"></rect><rect id="2-11" x="16" y="160" width="16" height="16" shape-rendering="crispEdges" style="fill:#b5d0d5;opacity:255;"></rect><rect id="3-11" x="32" y="160" width="16" height="16" shape-rendering="crispEdges" style="fill:#6f9298;opacity:255;"></rect><rect id="4-11" x="48" y="160" width="16" height="16" shape-rendering="crispEdges" style="fill:#0c0f1f;opacity:255;"></rect><rect id="5-11" x="64" y="160" width="16" height="16" shape-rendering="crispEdges" style="fill:#1e1c1c;opacity:255;"></rect><rect id="6-11" x="80" y="160" width="16" height="16" shape-rendering="crispEdges" style="fill:#aeccd1;opacity:255;"></rect><rect id="7-11" x="96" y="160" width="16" height="16" shape-rendering="crispEdges" style="fill:#1e1c1c;opacity:255;"></rect><rect id="8-11" x="112" y="160" width="16" height="16" shape-rendering="crispEdges" style="fill:#1e1c1c;opacity:255;"></rect><rect id="9-11" x="128" y="160" width="16" height="16" shape-rendering="crispEdges" style="fill:#1e1c1c;opacity:255;"></rect><rect id="10-11" x="144" y="160" width="16" height="16" shape-rendering="crispEdges" style="fill:#1e1c1c;opacity:255;"></rect><rect id="11-11" x="160" y="160" width="16" height="16" shape-rendering="crispEdges" style="fill:#aeccd1;opacity:255;"></rect><rect id="12-11" x="176" y="160" width="16" height="16" shape-rendering="crispEdges" style="fill:#1e1c1c;opacity:255;"></rect><rect id="13-11" x="192" y="160" width="16" height="16" shape-rendering="crispEdges" style="fill:#0c0f1f;opacity:255;"></rect><rect id="14-11" x="208" y="160" width="16" height="16" shape-rendering="crispEdges" style="fill:#6f9298;opacity:255;"></rect><rect id="15-11" x="224" y="160" width="16" height="16" shape-rendering="crispEdges" style="fill:#b5d0d5;opacity:255;"></rect><rect id="1-12" x="0" y="176" width="16" height="16" shape-rendering="crispEdges" style="fill:#b5d0d5;opacity:255;"></rect><rect id="2-12" x="16" y="176" width="16" height="16" shape-rendering="crispEdges" style="fill:#6f9298;opacity:255;"></rect><rect id="3-12" x="32" y="176" width="16" height="16" shape-rendering="crispEdges" style="fill:#b5d0d5;opacity:255;"></rect><rect id="4-12" x="48" y="176" width="16" height="16" shape-rendering="crispEdges" style="fill:#1e1c1c;opacity:255;"></rect><rect id="5-12" x="64" y="176" width="16" height="16" shape-rendering="crispEdges" style="fill:#d7edf1;opacity:255;"></rect><rect id="6-12" x="80" y="176" width="16" height="16" shape-rendering="crispEdges" style="fill:#d7edf1;opacity:255;"></rect><rect id="7-12" x="96" y="176" width="16" height="16" shape-rendering="crispEdges" style="fill:#d7edf1;opacity:255;"></rect><rect id="8-12" x="112" y="176" width="16" height="16" shape-rendering="crispEdges" style="fill:#1e1c1c;opacity:255;"></rect><rect id="9-12" x="128" y="176" width="16" height="16" shape-rendering="crispEdges" style="fill:#1e1c1c;opacity:255;"></rect><rect id="10-12" x="144" y="176" width="16" height="16" shape-rendering="crispEdges" style="fill:#d7edf1;opacity:255;"></rect><rect id="11-12" x="160" y="176" width="16" height="16" shape-rendering="crispEdges" style="fill:#d7edf1;opacity:255;"></rect><rect id="12-12" x="176" y="176" width="16" height="16" shape-rendering="crispEdges" style="fill:#d7edf1;opacity:255;"></rect><rect id="13-12" x="192" y="176" width="16" height="16" shape-rendering="crispEdges" style="fill:#1e1c1c;opacity:255;"></rect><rect id="14-12" x="208" y="176" width="16" height="16" shape-rendering="crispEdges" style="fill:#b5d0d5;opacity:255;"></rect><rect id="15-12" x="224" y="176" width="16" height="16" shape-rendering="crispEdges" style="fill:#6f9298;opacity:255;"></rect><rect id="16-12" x="240" y="176" width="16" height="16" shape-rendering="crispEdges" style="fill:#b5d0d5;opacity:255;"></rect><rect id="3-13" x="32" y="192" width="16" height="16" shape-rendering="crispEdges" style="fill:#6f9298;opacity:255;"></rect><rect id="4-13" x="48" y="192" width="16" height="16" shape-rendering="crispEdges" style="fill:#b5d0d5;opacity:255;"></rect><rect id="5-13" x="64" y="192" width="16" height="16" shape-rendering="crispEdges" style="fill:#1e1c1c;opacity:255;"></rect><rect id="6-13" x="80" y="192" width="16" height="16" shape-rendering="crispEdges" style="fill:#d7edf1;opacity:255;"></rect><rect id="7-13" x="96" y="192" width="16" height="16" shape-rendering="crispEdges" style="fill:#1e1c1c;opacity:255;"></rect><rect id="8-13" x="112" y="192" width="16" height="16" shape-rendering="crispEdges" style="fill:#1e1c1c;opacity:255;"></rect><rect id="9-13" x="128" y="192" width="16" height="16" shape-rendering="crispEdges" style="fill:#1e1c1c;opacity:255;"></rect><rect id="10-13" x="144" y="192" width="16" height="16" shape-rendering="crispEdges" style="fill:#1e1c1c;opacity:255;"></rect><rect id="11-13" x="160" y="192" width="16" height="16" shape-rendering="crispEdges" style="fill:#d7edf1;opacity:255;"></rect><rect id="12-13" x="176" y="192" width="16" height="16" shape-rendering="crispEdges" style="fill:#1e1c1c;opacity:255;"></rect><rect id="13-13" x="192" y="192" width="16" height="16" shape-rendering="crispEdges" style="fill:#b5d0d5;opacity:255;"></rect><rect id="14-13" x="208" y="192" width="16" height="16" shape-rendering="crispEdges" style="fill:#6f9298;opacity:255;"></rect><rect id="4-14" x="48" y="208" width="16" height="16" shape-rendering="crispEdges" style="fill:#6f9298;opacity:255;"></rect><rect id="5-14" x="64" y="208" width="16" height="16" shape-rendering="crispEdges" style="fill:#1e1c1c;opacity:255;"></rect><rect id="6-14" x="80" y="208" width="16" height="16" shape-rendering="crispEdges" style="fill:#1e1c1c;opacity:255;"></rect><rect id="7-14" x="96" y="208" width="16" height="16" shape-rendering="crispEdges" style="fill:#1e1c1c;opacity:255;"></rect><rect id="8-14" x="112" y="208" width="16" height="16" shape-rendering="crispEdges" style="fill:#1e1c1c;opacity:255;"></rect><rect id="9-14" x="128" y="208" width="16" height="16" shape-rendering="crispEdges" style="fill:#1e1c1c;opacity:255;"></rect><rect id="10-14" x="144" y="208" width="16" height="16" shape-rendering="crispEdges" style="fill:#1e1c1c;opacity:255;"></rect><rect id="11-14" x="160" y="208" width="16" height="16" shape-rendering="crispEdges" style="fill:#1e1c1c;opacity:255;"></rect><rect id="12-14" x="176" y="208" width="16" height="16" shape-rendering="crispEdges" style="fill:#1e1c1c;opacity:255;"></rect><rect id="13-14" x="192" y="208" width="16" height="16" shape-rendering="crispEdges" style="fill:#6f9298;opacity:255;"></rect><rect id="6-15" x="80" y="224" width="16" height="16" shape-rendering="crispEdges" style="fill:#232646;opacity:255;"></rect><rect id="7-15" x="96" y="224" width="16" height="16" shape-rendering="crispEdges" style="fill:#aeccd1;opacity:255;"></rect><rect id="8-15" x="112" y="224" width="16" height="16" shape-rendering="crispEdges" style="fill:#1e1c1c;opacity:255;"></rect><rect id="9-15" x="128" y="224" width="16" height="16" shape-rendering="crispEdges" style="fill:#1e1c1c;opacity:255;"></rect><rect id="10-15" x="144" y="224" width="16" height="16" shape-rendering="crispEdges" style="fill:#aeccd1;opacity:255;"></rect><rect id="11-15" x="160" y="224" width="16" height="16" shape-rendering="crispEdges" style="fill:#232646;opacity:255;"></rect><rect id="5-16" x="64" y="240" width="16" height="16" shape-rendering="crispEdges" style="fill:#232646;opacity:255;"></rect><rect id="6-16" x="80" y="240" width="16" height="16" shape-rendering="crispEdges" style="fill:#232646;opacity:255;"></rect><rect id="7-16" x="96" y="240" width="16" height="16" shape-rendering="crispEdges" style="fill:#c1493e;opacity:255;"></rect><rect id="8-16" x="112" y="240" width="16" height="16" shape-rendering="crispEdges" style="fill:#aeccd1;opacity:255;"></rect><rect id="9-16" x="128" y="240" width="16" height="16" shape-rendering="crispEdges" style="fill:#aeccd1;opacity:255;"></rect><rect id="10-16" x="144" y="240" width="16" height="16" shape-rendering="crispEdges" style="fill:#c1493e;opacity:255;"></rect><rect id="11-16" x="160" y="240" width="16" height="16" shape-rendering="crispEdges" style="fill:#232646;opacity:255;"></rect><rect id="12-16" x="176" y="240" width="16" height="16" shape-rendering="crispEdges" style="fill:#232646;opacity:255;"></rect></svg>